<mxfile host="app.diagrams.net" agent="Mozilla/5.0 (Windows NT 10.0; Win64; x64; rv:135.0) Gecko/20100101 Firefox/135.0" version="26.0.16" pages="2">
  <diagram name="Scenes" id="1GiRujSYgf5M7FoMmvSQ">
    <mxGraphModel dx="1502" dy="614" grid="1" gridSize="10" guides="1" tooltips="1" connect="1" arrows="1" fold="1" page="1" pageScale="1" pageWidth="850" pageHeight="1100" math="0" shadow="0">
      <root>
        <mxCell id="0" />
        <mxCell id="1" parent="0" />
        <mxCell id="EugAUjxd0abLgZRfPWGe-1" value="Main" style="rounded=0;whiteSpace=wrap;html=1;glass=0;shadow=0;strokeWidth=1;fontFamily=Garamond;fillColor=#F08E81;fontSize=20;fontStyle=0;align=center;strokeColor=#FFFFFF;fontColor=#1A1A1A;textShadow=0;labelBackgroundColor=none;sketch=1;curveFitting=1;jiggle=2;" vertex="1" parent="1">
          <mxGeometry x="20" y="230" width="120" height="60" as="geometry" />
        </mxCell>
        <mxCell id="EugAUjxd0abLgZRfPWGe-11" style="edgeStyle=orthogonalEdgeStyle;rounded=0;orthogonalLoop=1;jettySize=auto;html=1;exitX=0;exitY=0.5;exitDx=0;exitDy=0;entryX=0.5;entryY=0;entryDx=0;entryDy=0;labelBackgroundColor=none;strokeColor=#182E3E;fontColor=default;sketch=1;curveFitting=1;jiggle=2;" edge="1" parent="1" source="EugAUjxd0abLgZRfPWGe-2" target="EugAUjxd0abLgZRfPWGe-1">
          <mxGeometry relative="1" as="geometry" />
        </mxCell>
        <mxCell id="EugAUjxd0abLgZRfPWGe-2" value="&lt;div&gt;Shallow Blood&lt;/div&gt;" style="rounded=0;whiteSpace=wrap;html=1;glass=0;shadow=0;strokeWidth=1;fontFamily=Garamond;fillColor=#F08E81;fontSize=20;fontStyle=0;align=center;strokeColor=#FFFFFF;fontColor=#1A1A1A;textShadow=0;labelBackgroundColor=none;sketch=1;curveFitting=1;jiggle=2;" vertex="1" parent="1">
          <mxGeometry x="240" y="40" width="120" height="60" as="geometry" />
        </mxCell>
        <mxCell id="EugAUjxd0abLgZRfPWGe-12" style="edgeStyle=orthogonalEdgeStyle;rounded=0;orthogonalLoop=1;jettySize=auto;html=1;exitX=0;exitY=0.5;exitDx=0;exitDy=0;entryX=1;entryY=0.25;entryDx=0;entryDy=0;labelBackgroundColor=none;strokeColor=#182E3E;fontColor=default;sketch=1;curveFitting=1;jiggle=2;" edge="1" parent="1" source="EugAUjxd0abLgZRfPWGe-3" target="EugAUjxd0abLgZRfPWGe-1">
          <mxGeometry relative="1" as="geometry" />
        </mxCell>
        <mxCell id="EugAUjxd0abLgZRfPWGe-3" value="Midblood" style="rounded=0;whiteSpace=wrap;html=1;glass=0;shadow=0;strokeWidth=1;fontFamily=Garamond;fillColor=#F08E81;fontSize=20;fontStyle=0;align=center;strokeColor=#FFFFFF;fontColor=#1A1A1A;textShadow=0;labelBackgroundColor=none;sketch=1;curveFitting=1;jiggle=2;" vertex="1" parent="1">
          <mxGeometry x="240" y="180" width="120" height="60" as="geometry" />
        </mxCell>
        <mxCell id="EugAUjxd0abLgZRfPWGe-13" style="edgeStyle=orthogonalEdgeStyle;rounded=0;orthogonalLoop=1;jettySize=auto;html=1;exitX=0;exitY=0.5;exitDx=0;exitDy=0;entryX=1;entryY=0.75;entryDx=0;entryDy=0;labelBackgroundColor=none;strokeColor=#182E3E;fontColor=default;sketch=1;curveFitting=1;jiggle=2;" edge="1" parent="1" source="EugAUjxd0abLgZRfPWGe-4" target="EugAUjxd0abLgZRfPWGe-1">
          <mxGeometry relative="1" as="geometry" />
        </mxCell>
        <mxCell id="EugAUjxd0abLgZRfPWGe-4" value="&lt;div&gt;Bloody Trenches&lt;/div&gt;" style="rounded=0;whiteSpace=wrap;html=1;glass=0;shadow=0;strokeWidth=1;fontFamily=Garamond;fillColor=#F08E81;fontSize=20;fontStyle=0;align=center;strokeColor=#FFFFFF;fontColor=#1A1A1A;textShadow=0;labelBackgroundColor=none;sketch=1;curveFitting=1;jiggle=2;" vertex="1" parent="1">
          <mxGeometry x="240" y="280" width="120" height="60" as="geometry" />
        </mxCell>
        <mxCell id="EugAUjxd0abLgZRfPWGe-14" style="edgeStyle=orthogonalEdgeStyle;rounded=0;orthogonalLoop=1;jettySize=auto;html=1;exitX=0;exitY=0.5;exitDx=0;exitDy=0;entryX=0.5;entryY=1;entryDx=0;entryDy=0;labelBackgroundColor=none;strokeColor=#182E3E;fontColor=default;sketch=1;curveFitting=1;jiggle=2;" edge="1" parent="1" source="EugAUjxd0abLgZRfPWGe-5" target="EugAUjxd0abLgZRfPWGe-1">
          <mxGeometry relative="1" as="geometry" />
        </mxCell>
        <mxCell id="EugAUjxd0abLgZRfPWGe-5" value="Depths" style="rounded=0;whiteSpace=wrap;html=1;glass=0;shadow=0;strokeWidth=1;fontFamily=Garamond;fillColor=#F08E81;fontSize=20;fontStyle=0;align=center;strokeColor=#FFFFFF;fontColor=#1A1A1A;textShadow=0;labelBackgroundColor=none;sketch=1;curveFitting=1;jiggle=2;" vertex="1" parent="1">
          <mxGeometry x="240" y="420" width="120" height="60" as="geometry" />
        </mxCell>
      </root>
    </mxGraphModel>
  </diagram>
  <diagram name="Depths" id="5oBN4isUDsIzEFs2QtNv">
    <mxGraphModel dx="1502" dy="614" grid="1" gridSize="10" guides="1" tooltips="1" connect="1" arrows="1" fold="1" page="1" pageScale="1" pageWidth="850" pageHeight="1100" math="0" shadow="0">
      <root>
        <mxCell id="aRkmi022aGYSI_yo450k-0" />
        <mxCell id="aRkmi022aGYSI_yo450k-1" parent="aRkmi022aGYSI_yo450k-0" />
        <mxCell id="aRkmi022aGYSI_yo450k-2" value="Depths" style="rounded=0;whiteSpace=wrap;html=1;glass=0;shadow=0;strokeWidth=1;fontFamily=Garamond;fillColor=#F08E81;fontSize=20;fontStyle=0;align=center;strokeColor=#FFFFFF;fontColor=#1A1A1A;textShadow=0;labelBackgroundColor=none;sketch=1;curveFitting=1;jiggle=2;" vertex="1" parent="aRkmi022aGYSI_yo450k-1">
          <mxGeometry x="20" y="230" width="120" height="60" as="geometry" />
        </mxCell>
      </root>
    </mxGraphModel>
  </diagram>
</mxfile>
